<svg id="Layer_1" data-name="Layer 1" xmlns="http://www.w3.org/2000/svg" viewBox="0 0 298.05 61.02"><defs><style>.cls-1{fill:#fff;}</style></defs><title>JKICT_logo_v2_white</title><path class="cls-1" d="M14.33,35.55c3.64,1.69,7.34,3,7.55-1.89.14-3,0-6,0-9,0-2.79,0-5.82,0-8.65h6.15c0,5.87.14,11.77-.05,17.41-.12,3.39.64,7.76-3.56,9.15C20.1,44,16.28,37.43,14.33,35.55Z"/><path class="cls-1" d="M29.63,28.54,37.39,16h9.23C40.87,20.71,41,31.72,29.63,28.54Z"/><path class="cls-1" d="M18.91,43H12.79V36Z"/><path class="cls-1" d="M29.63,30.49,37.39,43h9.23C40.87,38.31,41,27.31,29.63,30.49Z"/><path class="cls-1" d="M121.69,43.12V41.58c3.15-.29,3.53-.54,3.53-4V21.72c0-3.49-.42-3.82-3.53-4.07V16.11h12.83v1.54c-3.11.29-3.53.58-3.53,4.07V37.55c0,3.45.37,3.7,3.53,4v1.54Z"/><path class="cls-1" d="M163.89,36a59.1,59.1,0,0,1-2.32,6.69,35.64,35.64,0,0,1-7.65,1.08c-11.17,0-15.78-7.19-15.78-13.79,0-8.6,6.56-14.42,16.53-14.42a44.41,44.41,0,0,1,7.85,1c.21,1.95.5,5,.79,6.85l-1.66.3c-.87-3.25-2.12-4.78-4.32-5.66a10.59,10.59,0,0,0-3.61-.58c-6,0-9.06,5-9.06,11.55,0,7.6,3.9,12.76,9.59,12.76,3.49,0,5.82-1.83,8.06-6.4Z"/><path class="cls-1" d="M190.44,23.3a12.74,12.74,0,0,0-1.79-4.07c-.74-.87-1.08-1.21-3.53-1.21h-2.66V37.55c0,3.49.42,3.74,4.12,4v1.54h-13.8V41.58c3.53-.29,3.91-.54,3.91-4V18h-2.54c-2.32,0-3,.38-3.78,1.38a15.87,15.87,0,0,0-1.7,3.94h-1.58c.29-3,.58-6.27.67-8.26H169c.63,1,1.12,1,2.37,1H188a2.75,2.75,0,0,0,2.41-1h1.2c0,1.74.21,5.4.42,8.1Z"/><path class="cls-1" d="M192.19,47.36c2.45-1.09,4-2.41,4-4,0-1.46-1.08-2.12-3.32-2.58-.29,0-.66-.67-.66-1.75a2.83,2.83,0,0,1,3-2.7c2.2,0,4.36,2,4.36,5.24,0,3.9-3.53,6.44-6.81,7.31Z"/><path class="cls-1" d="M212,43.12V41.58c3.16-.29,3.54-.54,3.54-4V21.72c0-3.49-.42-3.82-3.54-4.07V16.11h12.84v1.54c-3.11.29-3.53.58-3.53,4.07V37.55c0,3.45.37,3.7,3.53,4v1.54Z"/><path class="cls-1" d="M257.37,17.65c-2.54.33-3.32.87-3.45,2.74-.12,1.62-.25,3-.25,6.65V43.57h-2.33L234,22.8v9.39a61.09,61.09,0,0,0,.21,6.44c.16,1.83,1,2.78,4.11,2.95v1.54H228V41.58c2.37-.21,3.41-.83,3.65-2.78a55,55,0,0,0,.25-6.61V22.35a5,5,0,0,0-.87-3.37c-.75-1-1.74-1.16-3.49-1.33V16.11h8.1l15.83,18.41V27c0-3.61,0-5-.17-6.52-.12-1.79-.78-2.66-4.23-2.87V16.11h10.26Z"/><path class="cls-1" d="M285.91,36a57.1,57.1,0,0,1-2.33,6.69,35.52,35.52,0,0,1-7.64,1.08c-11.18,0-15.79-7.19-15.79-13.79,0-8.6,6.57-14.42,16.54-14.42a44.41,44.41,0,0,1,7.85,1c.21,1.95.5,5,.79,6.85l-1.66.3c-.88-3.25-2.12-4.78-4.32-5.66a10.65,10.65,0,0,0-3.62-.58c-6,0-9.05,5-9.05,11.55,0,7.6,3.9,12.76,9.59,12.76,3.49,0,5.82-1.83,8.06-6.4Z"/><path class="cls-1" d="M292.89,43.62a3.47,3.47,0,1,1,3.41-3.49A3.32,3.32,0,0,1,292.89,43.62Z"/><path class="cls-1" d="M83.89,17.44c-2.93.34-3.31.59-3.31,4.11V35.38c0,4.86-.46,8.93-4.44,12.07A14.69,14.69,0,0,1,70.94,50l-.67-1.59a6.24,6.24,0,0,0,4-5.16,51.18,51.18,0,0,0,.46-8V21.55c0-3.52-.41-3.82-3.64-4.11V15.89H83.89Z"/><path class="cls-1" d="M88.4,15.89h12.71v1.55c-3,.38-3.48.59-3.48,4.11v7a8.73,8.73,0,0,0,3.27-2.22,68.07,68.07,0,0,0,5.95-6.67c1-1.3.75-1.92-1.18-2.18l-.79-.08V15.89h11v1.55c-2.89.38-4.44.59-7.08,3.44-1.64,1.72-3.69,3.81-5.54,5.82,2.64,3.69,5.91,8.18,9.14,12.24,1.55,2,2.1,2.31,4.23,2.64v1.56h-8.34c-1.76-2.39-5.45-7.47-8.42-11.7-.88-1.26-1.55-1.51-2.22-1.38v7.42c0,3.56.29,3.69,3.52,4.1v1.56H88.4V41.58C91.55,41.25,92,41,92,37.48V21.55c0-3.52-.42-3.82-3.57-4.11Z"/><path class="cls-1" d="M31,58.67A28.49,28.49,0,1,1,59.49,30.19,28.52,28.52,0,0,1,31,58.67Zm0-55A26.49,26.49,0,1,0,57.49,30.19,26.52,26.52,0,0,0,31,3.7Z"/></svg>